<?xml version="1.0" standalone="no"?>
<!DOCTYPE svg PUBLIC "-//W3C//DTD SVG 20010904//EN"
 "http://www.w3.org/TR/2001/REC-SVG-20010904/DTD/svg10.dtd">
<svg version="1.0" xmlns="http://www.w3.org/2000/svg"
 width="80.000000pt" height="78.000000pt" viewBox="0 0 80.000000 78.000000"
 preserveAspectRatio="xMidYMid meet">
<metadata>
Created by potrace 1.16, written by Peter Selinger 2001-2019
</metadata>
<g transform="translate(0.000000,78.000000) scale(0.100000,-0.100000)"
fill="#000000" stroke="none">
<path d="M261 760 c-110 -40 -199 -131 -238 -244 -26 -74 -23 -203 6 -279 40
-102 189 -234 254 -225 18 2 23 10 25 46 l3 42 -41 0 c-35 0 -47 6 -73 34 -83
88 -96 137 -16 56 33 -33 46 -40 79 -40 34 0 42 4 55 31 9 17 15 32 13 33 -2
1 -23 8 -48 15 -79 23 -123 81 -123 166 -1 28 6 64 16 82 9 18 17 53 17 78 0
55 14 64 65 39 52 -24 235 -24 287 1 53 26 69 16 67 -43 -2 -32 3 -57 14 -73
21 -29 23 -116 3 -163 -17 -42 -59 -74 -113 -89 -34 -9 -42 -15 -36 -27 4 -8
9 -52 11 -98 4 -97 10 -103 78 -77 103 39 202 169 224 296 30 172 -65 353
-224 426 -82 37 -222 44 -305 13z"/>
</g>
</svg>
